<svg xmlns="http://www.w3.org/2000/svg" width="90" height="90" viewBox="0 0 90 90"><path d="M9.016 44.77l12.652 17.757 8.118-9.203 16.642 21.668 14.365-20.363 4.011 5.427 6.742-10.513 4.634 4.949 5.94-9.841-73.104.119zM79.062 21.8H10.938c-5.694 0-10.31 3.709-10.31 9.4s4.616 9.408 10.31 9.408h68.124c5.694 0 10.31-3.713 10.31-9.408s-4.616-9.4-10.31-9.4zM11.8 36.931a5.75 5.75 0 1 1 4.6-9.164 5.75 5.75 0 0 1-4.6 9.164zm33.2 0a5.8 5.8 0 1 1 4.6-2.336 5.728 5.728 0 0 1-4.6 2.336zm33.2 0a5.75 5.75 0 1 1 5.751-5.749 5.728 5.728 0 0 1-5.751 5.749z"/></svg>