<svg xmlns="http://www.w3.org/2000/svg" width="90" height="90" viewBox="0 0 90 90"><defs><style>.a{fill:#040000}</style></defs><path class="a" d="M43.324 28.483h14.241a3.017 3.017 0 0 0 0-6.034H43.324a3.017 3.017 0 1 0 0 6.034zm-19.599-8.11h14.241a3.017 3.017 0 1 0 0-6.034H23.725a3.017 3.017 0 1 0 0 6.034zm19.62 33.165l5.645-9.446 3.188 5.442L60.8 37.721a3.569 3.569 0 0 0 .124-.932c0-1.277 0-3.214-1.823-3.214H2.586c-1.822 0-1.822 1.937-1.822 3.214a3.636 3.636 0 0 0 .309 1.395l.026.148.111.2.09.148 15.574 16.777 4.265-6.688 10.472 12.783 8.814-11.9z"/><path class="a" d="M87.413 47.685H57.419l-5.529 7.573-2.927-5-5.321 8.9-3.2-4.261-3.934 5.313 8.675 9.348 4.265-6.688L59.92 75.661l8.813-11.9 2.921 3.889L77.3 58.2l3.188 5.442 8.625-11.812a3.569 3.569 0 0 0 .124-.932c-.001-1.276-.001-3.213-1.824-3.213zM4.126 28.483h14.241a3.017 3.017 0 0 0 0-6.034H4.126a3.017 3.017 0 0 0 0 6.034z"/></svg>